<?xml version="1.0" encoding="utf-8"?>
<!-- Generator: Adobe Illustrator 19.0.0, SVG Export Plug-In . SVG Version: 6.00 Build 0)  -->
<svg version="1.1" id="Layer_1" xmlns="http://www.w3.org/2000/svg" xmlns:xlink="http://www.w3.org/1999/xlink" x="0px" y="0px"
	 viewBox="0 0 500 500" style="enable-background:new 0 0 500 500;" xml:space="preserve">
<style type="text/css">
	.st0{fill:#CCCCCC;}
	.st1{fill:#A6120D;}
	.st2{fill:#B3B3B3;}
	.st3{fill:#DD1B16;}
	.st4{fill:#F2F2F2;}
</style>
<g id="XMLID_30_">
	<polygon id="XMLID_3_" class="st0" points="162.7,266.5 162.7,229.1 167.6,229.1 190.5,259.3 190.5,229.1 195,229.1 195,266.5 
		190.2,266.5 167.3,236.1 167.3,266.5 	"/>
	<path id="XMLID_4_" class="st0" d="M232.2,265.1c-3,1.2-6.3,1.7-9.8,1.7c-13.5,0-20.3-6.5-20.3-19.5c0-12.3,6.5-18.4,19.6-18.4
		c3.8,0,7.2,0.5,10.5,1.6v4.2c-3.2-1.2-6.5-1.8-9.9-1.8c-10.2,0-15.3,4.8-15.3,14.5c0,10.4,5,15.6,15.1,15.6c1.6,0,3.4-0.2,5.3-0.6
		v-12.7h4.8L232.2,265.1z"/>
	<path id="XMLID_5_" class="st0" d="M239.9,252.1v-23h4.8v23c0,7.2,3.6,10.8,10.7,10.8c7.1,0,10.7-3.6,10.7-10.8v-23h4.8v23
		c0,9.8-5.2,14.7-15.6,14.7C245.1,266.8,239.9,261.9,239.9,252.1z"/>
	<polygon id="XMLID_6_" class="st0" points="284.5,229.1 284.5,262.6 304,262.6 304,266.5 279.6,266.5 279.6,229.1 	"/>
	<polygon id="XMLID_7_" class="st0" points="311,266.5 306,266.5 324.6,224.2 343.2,266.5 337.8,266.5 333,254.8 320.6,254.8 
		322,250.9 331.4,250.9 324.4,233.9 	"/>
	<path id="XMLID_8_" class="st0" d="M348.3,266.5v-37.4h16c7.1,0,10.7,3,10.7,9c0,4.9-3.5,8.5-10.4,10.8l12.8,17.6h-6.4L359,249.7
		v-3.2c7.1-1.1,10.7-3.9,10.7-8.2c0-3.5-2-5.2-6-5.2h-10.7v33.4L348.3,266.5L348.3,266.5z"/>
	<path id="XMLID_9_" class="st0" d="M395.4,229.1v26.6c0,7.2-4.2,10.8-12.7,10.8v-3.9c5.2,0,7.8-2.3,7.8-6.9v-26.6H395.4z"/>
	<path id="XMLID_10_" class="st0" d="M404.1,265.2v-4.4c3.9,1.4,8.2,2.1,12.7,2.1c6.4,0,9.7-2.4,9.7-7.1c0-4-2.4-6-7.1-6h-4.8
		c-7.8,0-11.7-3.4-11.7-10.2c0-7.1,5-10.7,15-10.7c4.4,0,8.4,0.5,12.2,1.6v4.4c-3.8-1.4-7.8-2.1-12.2-2.1c-6.8,0-10.2,2.3-10.2,6.8
		c0,4,2.3,6,6.9,6h4.8c8,0,12,3.4,12,10.2c0,7.3-4.8,11-14.5,11C412.2,266.8,408,266.3,404.1,265.2z"/>
	<polygon id="XMLID_11_" points="164,265.3 164,227.9 168.8,227.9 191.7,258 191.7,227.9 196.3,227.9 196.3,265.3 191.4,265.3 
		168.5,234.9 168.5,265.3 	"/>
	<path id="XMLID_12_" d="M233.4,263.9c-3,1.2-6.3,1.7-9.8,1.7c-13.5,0-20.3-6.5-20.3-19.5c0-12.3,6.5-18.4,19.6-18.4
		c3.7,0,7.2,0.5,10.5,1.6v4.2c-3.2-1.2-6.5-1.8-9.9-1.8c-10.2,0-15.3,4.8-15.3,14.5c0,10.4,5,15.6,15.1,15.6c1.6,0,3.4-0.2,5.3-0.6
		v-12.7h4.8L233.4,263.9z"/>
	<path id="XMLID_13_" d="M241.1,250.9v-23h4.8v23c0,7.2,3.6,10.8,10.7,10.8c7.1,0,10.7-3.6,10.7-10.8v-23h4.8v23
		c0,9.8-5.2,14.7-15.6,14.7C246.3,265.6,241.1,260.7,241.1,250.9z"/>
	<polygon id="XMLID_14_" points="285.7,227.9 285.7,261.4 305.3,261.4 305.3,265.3 280.9,265.3 280.9,227.9 	"/>
	<polygon id="XMLID_15_" points="312.3,265.3 307.2,265.3 325.8,223 344.4,265.3 339.1,265.3 334.2,253.5 321.8,253.5 323.2,249.6 
		332.6,249.6 325.6,232.7 	"/>
	<path id="XMLID_16_" d="M349.5,265.3v-37.4h16c7.1,0,10.7,3,10.7,9c0,4.9-3.5,8.5-10.4,10.8l12.8,17.6h-6.4l-11.9-16.8v-3.2
		c7.1-1.1,10.7-3.9,10.7-8.2c0-3.5-2-5.2-6-5.2h-10.7v33.4H349.5z"/>
	<path id="XMLID_17_" class="st1" d="M396.7,227.9v26.6c0,7.2-4.2,10.8-12.7,10.8v-3.9c5.2,0,7.8-2.3,7.8-6.9v-26.6H396.7z"/>
	<path id="XMLID_18_" class="st1" d="M405.3,264v-4.4c3.9,1.4,8.2,2.1,12.7,2.1c6.4,0,9.7-2.4,9.7-7.1c0-4-2.4-6-7.1-6h-4.8
		c-7.8,0-11.7-3.4-11.7-10.2c0-7.1,5-10.7,15-10.7c4.4,0,8.4,0.5,12.2,1.6v4.4c-3.8-1.4-7.8-2.1-12.2-2.1c-6.8,0-10.2,2.3-10.2,6.8
		c0,4,2.3,6,6.9,6h4.8c8,0,12,3.4,12,10.2c0,7.3-4.8,11-14.5,11C413.5,265.6,409.2,265.1,405.3,264z"/>
	<path id="XMLID_22_" d="M352,291.1l-1.8-5.4H349l2.5,6.8c-0.1,0.1-0.2,0.4-0.3,0.7c-0.1,0.3-0.2,0.5-0.2,0.5
		c-0.1,0.1-0.1,0.2-0.2,0.3c-0.1,0.1-0.2,0.1-0.5,0.1c-0.1,0-0.1,0-0.2,0c-0.1,0-0.2,0-0.4-0.1v1c0.1,0,0.2,0.1,0.3,0.1
		c0.1,0,0.2,0,0.4,0c0.6,0,1.1-0.2,1.4-0.6c0.3-0.4,0.7-1.4,1.4-3.1c0.3-0.7,0.6-1.6,1-2.8c0.5-1.5,0.9-2.5,1-2.9h-1.2L352,291.1z
		 M345.4,291.6c-0.8,0-1.4-0.4-1.6-1.1c-0.2-0.4-0.2-0.9-0.2-1.5c0-0.9,0.2-1.5,0.6-1.9c0.4-0.4,0.8-0.6,1.3-0.6
		c0.6,0,1,0.2,1.3,0.7c0.3,0.5,0.5,1,0.5,1.7c0,0.8-0.1,1.4-0.5,1.9C346.5,291.3,346,291.6,345.4,291.6z M342.5,292.3h1v-0.8
		c0.2,0.3,0.5,0.5,0.7,0.7c0.3,0.2,0.8,0.4,1.3,0.4c0.9,0,1.6-0.3,2.1-1c0.5-0.7,0.8-1.6,0.8-2.6c0-1.1-0.3-1.9-0.8-2.5
		c-0.5-0.6-1.2-0.9-2-0.9c-0.4,0-0.8,0.1-1.1,0.3c-0.3,0.2-0.6,0.4-0.9,0.7v-3.3h-1.1L342.5,292.3z"/>
	<polygon id="XMLID_23_" class="st2" points="111.2,200.1 67.5,215.4 74.4,272.7 111.2,292.9 148.2,272.4 155.1,215.2 	"/>
	<polygon id="XMLID_24_" class="st1" points="150.8,218.5 111.1,204.9 111.1,288.1 144.3,269.7 	"/>
	<polygon id="XMLID_25_" class="st3" points="72.4,218.7 78.3,269.9 111.1,288.1 111.1,204.9 	"/>
	<path id="XMLID_28_" class="st4" d="M122,249.2l-10.9,5.1H99.6l-5.4,13.5L84.1,268l27-60.1L122,249.2z M120.9,246.6l-9.8-19.4
		l-8,19.1h8L120.9,246.6z"/>
	<polygon id="XMLID_29_" class="st2" points="111.1,208 111.1,227.2 120.3,246.3 111.1,246.3 111.1,254.3 123.8,254.3 129.7,268 
		139.3,268.2 	"/>
	<g id="XMLID_2_">
		<path id="path2998" d="M378.4,285.1h-8.2v2.4h5.8c-0.3,3.4-3.1,4.9-5.8,4.9c-3.4,0-6.4-2.7-6.4-6.5c0-3.7,2.8-6.5,6.4-6.5
			c2.8,0,4.4,1.8,4.4,1.8l1.7-1.8c0,0-2.2-2.4-6.2-2.4c-5.1,0-9,4.3-9,8.9c0,4.5,3.7,8.9,9.1,8.9c4.8,0,8.3-3.3,8.3-8.1
			C378.5,285.6,378.4,285.1,378.4,285.1L378.4,285.1z"/>
		<path id="path3000" d="M385.1,283.3c-3.4,0-5.8,2.6-5.8,5.7c0,3.1,2.3,5.8,5.8,5.8c3.1,0,5.7-2.4,5.7-5.7
			C390.8,285.3,387.8,283.3,385.1,283.3L385.1,283.3z M385.1,285.5c1.7,0,3.2,1.3,3.2,3.5c0,2.1-1.6,3.5-3.2,3.5
			c-1.8,0-3.3-1.5-3.3-3.5C381.8,287,383.2,285.5,385.1,285.5L385.1,285.5z"/>
		<path id="path3005" d="M397.6,283.3c-3.4,0-5.8,2.6-5.8,5.7c0,3.1,2.3,5.8,5.8,5.8c3.1,0,5.7-2.4,5.7-5.7
			C403.3,285.3,400.4,283.3,397.6,283.3L397.6,283.3z M397.6,285.5c1.7,0,3.2,1.3,3.2,3.5c0,2.1-1.6,3.5-3.2,3.5
			c-1.8,0-3.3-1.5-3.3-3.5C394.3,287,395.8,285.5,397.6,285.5L397.6,285.5z"/>
		<path id="path3007" d="M409.9,283.3c-3.1,0-5.5,2.7-5.5,5.7c0,3.4,2.8,5.7,5.4,5.7c1.6,0,2.5-0.6,3.1-1.4v1.1c0,2-1.2,3.2-3,3.2
			c-1.8,0-2.6-1.3-2.9-2l-2.2,0.9c0.8,1.7,2.4,3.4,5.2,3.4c3.1,0,5.4-1.9,5.4-6v-10.3H413v1C412.2,283.8,411.2,283.3,409.9,283.3
			L409.9,283.3z M410.1,285.6c1.5,0,3.1,1.3,3.1,3.5c0,2.2-1.5,3.5-3.1,3.5c-1.6,0-3.2-1.3-3.2-3.5
			C406.9,286.9,408.5,285.6,410.1,285.6L410.1,285.6z"/>
		<path id="path3011" d="M426.1,283.3c-2.9,0-5.3,2.3-5.3,5.7c0,3.6,2.7,5.8,5.6,5.8c2.4,0,3.9-1.3,4.8-2.5l-2-1.3
			c-0.5,0.8-1.4,1.6-2.8,1.6c-1.6,0-2.4-0.9-2.8-1.7l7.7-3.2l-0.4-0.9C430.1,284.8,428.4,283.3,426.1,283.3L426.1,283.3z
			 M426.2,285.5c1,0,1.8,0.6,2.1,1.2l-5.1,2.1C422.9,287.2,424.5,285.5,426.2,285.5L426.2,285.5z"/>
		<path id="path3015" d="M417.1,294.4h2.5v-16.9h-2.5V294.4z"/>
	</g>
</g>
</svg>
